<?xml version="1.0" encoding="UTF-8"?><svg xmlns="http://www.w3.org/2000/svg" xmlns:xlink="http://www.w3.org/1999/xlink" fill-opacity="1" color-rendering="auto" color-interpolation="auto" text-rendering="auto" stroke="black" stroke-linecap="square" width="730" stroke-miterlimit="10" shape-rendering="auto" stroke-opacity="1" fill="black" stroke-dasharray="none" font-weight="normal" stroke-width="1" height="468" font-family="'Dialog'" font-style="normal" stroke-linejoin="miter" font-size="12px" stroke-dashoffset="0" image-rendering="auto">
  <!--Generated by ySVG 2.5-->
  <defs id="genericDefs"/>
  <g>
    <defs id="defs1">
      <clipPath clipPathUnits="userSpaceOnUse" id="clipPath1">
        <path d="M0 0 L730 0 L730 468 L0 468 L0 0 Z"/>
      </clipPath>
      <clipPath clipPathUnits="userSpaceOnUse" id="clipPath2">
        <path d="M338 378 L1068 378 L1068 846 L338 846 L338 378 Z"/>
      </clipPath>
    </defs>
    <g fill="white" text-rendering="geometricPrecision" shape-rendering="geometricPrecision" transform="translate(-338,-378)" stroke="white">
      <rect x="338" width="730" height="468" y="378" clip-path="url(#clipPath2)" stroke="none"/>
    </g>
    <g fill="rgb(0,255,102)" text-rendering="geometricPrecision" shape-rendering="geometricPrecision" transform="matrix(1,0,0,1,-338,-378)" stroke="rgb(0,255,102)">
      <rect x="563.2093" width="115" height="42" y="399.5" clip-path="url(#clipPath2)" stroke="none"/>
    </g>
    <g text-rendering="geometricPrecision" stroke-miterlimit="1.45" shape-rendering="geometricPrecision" transform="matrix(1,0,0,1,-338,-378)" stroke-linecap="butt">
      <rect fill="none" x="563.2093" width="115" height="42" y="399.5" clip-path="url(#clipPath2)"/>
      <text x="603.7787" xml:space="preserve" y="425.0352" clip-path="url(#clipPath2)" font-family="sans-serif" stroke="none">Client</text>
    </g>
    <g fill="yellow" text-rendering="geometricPrecision" shape-rendering="geometricPrecision" transform="matrix(1,0,0,1,-338,-378)" stroke="yellow">
      <rect x="563.2093" width="115" height="42" y="509.375" clip-path="url(#clipPath2)" stroke="none"/>
    </g>
    <g text-rendering="geometricPrecision" stroke-miterlimit="1.45" shape-rendering="geometricPrecision" transform="matrix(1,0,0,1,-338,-378)" stroke-linecap="butt">
      <rect fill="none" x="563.2093" width="115" height="42" y="509.375" clip-path="url(#clipPath2)"/>
      <text x="595.6517" xml:space="preserve" y="534.9102" clip-path="url(#clipPath2)" font-family="sans-serif" stroke="none">Manager</text>
    </g>
    <g fill="rgb(255,204,0)" text-rendering="geometricPrecision" shape-rendering="geometricPrecision" transform="matrix(1,0,0,1,-338,-378)" stroke="rgb(255,204,0)">
      <rect x="563.2093" width="115" height="42" y="596.25" clip-path="url(#clipPath2)" stroke="none"/>
    </g>
    <g text-rendering="geometricPrecision" stroke-miterlimit="1.45" shape-rendering="geometricPrecision" transform="matrix(1,0,0,1,-338,-378)" stroke-linecap="butt">
      <rect fill="none" x="563.2093" width="115" height="42" y="596.25" clip-path="url(#clipPath2)"/>
      <text x="601.1918" xml:space="preserve" y="621.7852" clip-path="url(#clipPath2)" font-family="sans-serif" stroke="none">Engine</text>
    </g>
    <g fill="rgb(255,153,204)" text-rendering="geometricPrecision" shape-rendering="geometricPrecision" transform="matrix(1,0,0,1,-338,-378)" stroke="rgb(255,153,204)">
      <rect x="937.2093" width="115" height="42" y="509.375" clip-path="url(#clipPath2)" stroke="none"/>
    </g>
    <g text-rendering="geometricPrecision" stroke-miterlimit="1.45" shape-rendering="geometricPrecision" transform="matrix(1,0,0,1,-338,-378)" stroke-linecap="butt">
      <rect fill="none" x="937.2093" width="115" height="42" y="509.375" clip-path="url(#clipPath2)"/>
      <text x="975.9916" xml:space="preserve" y="534.9102" clip-path="url(#clipPath2)" font-family="sans-serif" stroke="none">Utillity</text>
    </g>
    <g fill="silver" text-rendering="geometricPrecision" shape-rendering="geometricPrecision" transform="matrix(1,0,0,1,-338,-378)" stroke="silver">
      <rect x="563.2093" width="115" height="42" y="708.5" clip-path="url(#clipPath2)" stroke="none"/>
    </g>
    <g text-rendering="geometricPrecision" stroke-miterlimit="1.45" shape-rendering="geometricPrecision" transform="matrix(1,0,0,1,-338,-378)" stroke-linecap="butt">
      <rect fill="none" x="563.2093" width="115" height="42" y="708.5" clip-path="url(#clipPath2)"/>
      <text x="574.4877" xml:space="preserve" y="734.0352" clip-path="url(#clipPath2)" font-family="sans-serif" stroke="none">ResourceAccess</text>
    </g>
    <g fill="rgb(153,204,255)" text-rendering="geometricPrecision" shape-rendering="geometricPrecision" transform="matrix(1,0,0,1,-338,-378)" stroke="rgb(153,204,255)">
      <path d="M581.2094 790.5 C583.5793 780.5 657.8394 780.5 660.2094 790.5 L660.2094 820.5 C657.8394 830.5 583.5793 830.5 581.2094 820.5 Z" stroke="none" clip-path="url(#clipPath2)"/>
    </g>
    <g text-rendering="geometricPrecision" stroke-miterlimit="1.45" shape-rendering="geometricPrecision" transform="matrix(1,0,0,1,-338,-378)" stroke-linecap="butt">
      <path fill="none" d="M581.2094 790.5 C583.5793 780.5 657.8394 780.5 660.2094 790.5 L660.2094 820.5 C657.8394 830.5 583.5793 830.5 581.2094 820.5 Z" clip-path="url(#clipPath2)"/>
      <path fill="none" d="M660.2094 790.5 C657.8394 800.5 583.5793 800.5 581.2094 790.5" clip-path="url(#clipPath2)"/>
      <text x="594.2338" xml:space="preserve" y="810.0352" clip-path="url(#clipPath2)" font-family="sans-serif" stroke="none">Resource</text>
    </g>
    <g stroke-linecap="round" transform="matrix(1,0,0,1,-338,-378)" stroke-dashoffset="2" text-rendering="geometricPrecision" shape-rendering="geometricPrecision" stroke-dasharray="0,8" stroke-width="2" stroke-miterlimit="1.45">
      <rect fill="none" x="353.5" width="558" height="1" y="463.5" clip-path="url(#clipPath2)"/>
    </g>
    <g text-rendering="geometricPrecision" stroke-miterlimit="1.45" shape-rendering="geometricPrecision" font-family="sans-serif" transform="matrix(1,0,0,1,-338,-378)" stroke-linecap="butt">
      <text x="359.5" xml:space="preserve" y="406.9531" clip-path="url(#clipPath2)" stroke="none">Clients</text>
    </g>
    <g stroke-linecap="round" transform="matrix(1,0,0,1,-338,-378)" stroke-dashoffset="2" text-rendering="geometricPrecision" shape-rendering="geometricPrecision" stroke-dasharray="0,8" stroke-width="2" stroke-miterlimit="1.45">
      <rect fill="none" x="353.5" width="558" height="1" y="677.5" clip-path="url(#clipPath2)"/>
    </g>
    <g text-rendering="geometricPrecision" stroke-miterlimit="1.45" shape-rendering="geometricPrecision" font-family="sans-serif" transform="matrix(1,0,0,1,-338,-378)" stroke-linecap="butt">
      <text x="359.5" xml:space="preserve" y="501.8047" clip-path="url(#clipPath2)" stroke="none">Business</text>
      <text x="369.2178" xml:space="preserve" y="515.9375" clip-path="url(#clipPath2)" stroke="none">Logic</text>
      <path fill="none" d="M620.7094 441.5 L620.7094 501.375" clip-path="url(#clipPath2)"/>
      <path d="M620.7094 509.375 L625.7094 497.375 L620.7094 500.375 L615.7094 497.375 Z" clip-path="url(#clipPath2)" stroke="none"/>
      <text x="577.5463" xml:space="preserve" y="479.9727" clip-path="url(#clipPath2)" stroke="none">Sync</text>
      <path fill="none" d="M620.7094 551.375 L620.7094 588.25" clip-path="url(#clipPath2)"/>
      <path d="M620.7094 596.25 L625.7094 584.25 L620.7094 587.25 L615.7094 584.25 Z" clip-path="url(#clipPath2)" stroke="none"/>
      <path fill="none" stroke-dasharray="6,2" d="M678.2094 530.375 L929.2094 530.375" clip-path="url(#clipPath2)"/>
      <path stroke-dasharray="6,2" d="M937.2094 530.375 L925.2094 525.375 L928.2094 530.375 L925.2094 535.375 Z" clip-path="url(#clipPath2)" stroke="none"/>
      <text x="790.5795" xml:space="preserve" y="564.9102" clip-path="url(#clipPath2)" stroke="none">Async</text>
      <path fill="none" d="M620.7094 638.25 L620.7094 700.5" clip-path="url(#clipPath2)"/>
      <path d="M620.7094 708.5 L625.7094 696.5 L620.7094 699.5 L615.7094 696.5 Z" clip-path="url(#clipPath2)" stroke="none"/>
      <path fill="none" d="M620.7094 750.5 L620.7094 775.022" clip-path="url(#clipPath2)"/>
      <path d="M620.7094 783.022 L625.7094 771.022 L620.7094 774.022 L615.7094 771.022 Z" clip-path="url(#clipPath2)" stroke="none"/>
    </g>
  </g>
</svg>
