<?xml version="1.0" encoding="UTF-8" standalone="no"?><svg xmlns="http://www.w3.org/2000/svg" xmlns:xlink="http://www.w3.org/1999/xlink" contentScriptType="application/ecmascript" contentStyleType="text/css" height="341px" preserveAspectRatio="none" style="width:371px;height:341px;" version="1.1" viewBox="0 0 371 341" width="371px" zoomAndPan="magnify"><defs><filter height="300%" id="f1d70mgmt92uhv" width="300%" x="-1" y="-1"><feGaussianBlur result="blurOut" stdDeviation="2.0"/><feColorMatrix in="blurOut" result="blurOut2" type="matrix" values="0 0 0 0 0 0 0 0 0 0 0 0 0 0 0 0 0 0 .4 0"/><feOffset dx="4.0" dy="4.0" in="blurOut2" result="blurOut3"/><feBlend in="SourceGraphic" in2="blurOut3" mode="normal"/></filter></defs><g><ellipse cx="91" cy="48.4961" fill="#000000" filter="url(#f1d70mgmt92uhv)" rx="10" ry="10" style="stroke: none; stroke-width: 1.0;"/><rect fill="#FEFECE" filter="url(#f1d70mgmt92uhv)" height="34.1328" rx="12.5" ry="12.5" style="stroke: #A80036; stroke-width: 1.5;" width="140" x="21" y="78.4961"/><text fill="#000000" font-family="sans-serif" font-size="12" lengthAdjust="spacingAndGlyphs" textLength="120" x="31" y="100.0977">Request Operation X</text><line style="stroke: #000000; stroke-width: 2.0;" x1="15" x2="15" y1="12.2969" y2="324.8945"/><rect fill="#FEFECE" filter="url(#f1d70mgmt92uhv)" height="34.1328" rx="12.5" ry="12.5" style="stroke: #A80036; stroke-width: 1.5;" width="118" x="211.5" y="132.6289"/><text fill="#000000" font-family="sans-serif" font-size="12" lengthAdjust="spacingAndGlyphs" textLength="98" x="221.5" y="154.2305">Validate Request</text><polygon fill="#FEFECE" filter="url(#f1d70mgmt92uhv)" points="255,186.7617,286,186.7617,298,198.7617,286,210.7617,255,210.7617,243,198.7617,255,186.7617" style="stroke: #A80036; stroke-width: 1.5;"/><text fill="#000000" font-family="sans-serif" font-size="11" lengthAdjust="spacingAndGlyphs" textLength="31" x="255" y="202.9189">Valid?</text><text fill="#000000" font-family="sans-serif" font-size="11" lengthAdjust="spacingAndGlyphs" textLength="26" x="217" y="196.4414">[yes]</text><text fill="#000000" font-family="sans-serif" font-size="11" lengthAdjust="spacingAndGlyphs" textLength="23" x="298" y="196.4414">[No]</text><rect fill="#FEFECE" filter="url(#f1d70mgmt92uhv)" height="34.1328" rx="12.5" ry="12.5" style="stroke: #A80036; stroke-width: 1.5;" width="95" x="177" y="220.7617"/><text fill="#000000" font-family="sans-serif" font-size="12" lengthAdjust="spacingAndGlyphs" textLength="75" x="187" y="242.3633">Do operation</text><rect fill="#FEFECE" filter="url(#f1d70mgmt92uhv)" height="34.1328" rx="12.5" ry="12.5" style="stroke: #A80036; stroke-width: 1.5;" width="49" x="292" y="220.7617"/><text fill="#000000" font-family="sans-serif" font-size="12" lengthAdjust="spacingAndGlyphs" textLength="29" x="302" y="242.3633">Error</text><polygon fill="#FEFECE" filter="url(#f1d70mgmt92uhv)" points="270.5,260.8945,282.5,272.8945,270.5,284.8945,258.5,272.8945,270.5,260.8945" style="stroke: #A80036; stroke-width: 1.5;"/><ellipse cx="270.5" cy="314.8945" fill="#FFFFFF" filter="url(#f1d70mgmt92uhv)" rx="10" ry="10" style="stroke: #000000; stroke-width: 1.5;"/><line style="stroke: #000000; stroke-width: 2.5;" x1="264.3128" x2="276.6872" y1="308.7073" y2="321.0817"/><line style="stroke: #000000; stroke-width: 2.5;" x1="276.6872" x2="264.3128" y1="308.7073" y2="321.0817"/><line style="stroke: #000000; stroke-width: 2.0;" x1="171" x2="171" y1="12.2969" y2="324.8945"/><line style="stroke: #000000; stroke-width: 2.0;" x1="351" x2="351" y1="12.2969" y2="324.8945"/><line style="stroke: #A80036; stroke-width: 1.5;" x1="91" x2="91" y1="58.4961" y2="78.4961"/><polygon fill="#A80036" points="87,68.4961,91,78.4961,95,68.4961,91,72.4961" style="stroke: #A80036; stroke-width: 1.0;"/><line style="stroke: #A80036; stroke-width: 1.5;" x1="243" x2="224.5" y1="198.7617" y2="198.7617"/><line style="stroke: #A80036; stroke-width: 1.5;" x1="224.5" x2="224.5" y1="198.7617" y2="220.7617"/><polygon fill="#A80036" points="220.5,210.7617,224.5,220.7617,228.5,210.7617,224.5,214.7617" style="stroke: #A80036; stroke-width: 1.0;"/><line style="stroke: #A80036; stroke-width: 1.5;" x1="298" x2="316.5" y1="198.7617" y2="198.7617"/><line style="stroke: #A80036; stroke-width: 1.5;" x1="316.5" x2="316.5" y1="198.7617" y2="220.7617"/><polygon fill="#A80036" points="312.5,210.7617,316.5,220.7617,320.5,210.7617,316.5,214.7617" style="stroke: #A80036; stroke-width: 1.0;"/><line style="stroke: #A80036; stroke-width: 1.5;" x1="224.5" x2="224.5" y1="254.8945" y2="272.8945"/><line style="stroke: #A80036; stroke-width: 1.5;" x1="224.5" x2="258.5" y1="272.8945" y2="272.8945"/><polygon fill="#A80036" points="248.5,268.8945,258.5,272.8945,248.5,276.8945,252.5,272.8945" style="stroke: #A80036; stroke-width: 1.0;"/><line style="stroke: #A80036; stroke-width: 1.5;" x1="316.5" x2="316.5" y1="254.8945" y2="272.8945"/><line style="stroke: #A80036; stroke-width: 1.5;" x1="316.5" x2="282.5" y1="272.8945" y2="272.8945"/><polygon fill="#A80036" points="292.5,268.8945,282.5,272.8945,292.5,276.8945,288.5,272.8945" style="stroke: #A80036; stroke-width: 1.0;"/><line style="stroke: #A80036; stroke-width: 1.5;" x1="270.5" x2="270.5" y1="166.7617" y2="186.7617"/><polygon fill="#A80036" points="266.5,176.7617,270.5,186.7617,274.5,176.7617,270.5,180.7617" style="stroke: #A80036; stroke-width: 1.0;"/><line style="stroke: #A80036; stroke-width: 1.5;" x1="270.5" x2="270.5" y1="284.8945" y2="304.8945"/><polygon fill="#A80036" points="266.5,294.8945,270.5,304.8945,274.5,294.8945,270.5,298.8945" style="stroke: #A80036; stroke-width: 1.0;"/><line style="stroke: #A80036; stroke-width: 1.5;" x1="91" x2="91" y1="112.6289" y2="117.6289"/><line style="stroke: #A80036; stroke-width: 1.5;" x1="91" x2="270.5" y1="117.6289" y2="117.6289"/><line style="stroke: #A80036; stroke-width: 1.5;" x1="270.5" x2="270.5" y1="117.6289" y2="132.6289"/><polygon fill="#A80036" points="266.5,122.6289,270.5,132.6289,274.5,122.6289,270.5,126.6289" style="stroke: #A80036; stroke-width: 1.0;"/><text fill="#000000" font-family="sans-serif" font-size="18" lengthAdjust="spacingAndGlyphs" textLength="50" x="68" y="29.6992">Client</text><text fill="#000000" font-family="sans-serif" font-size="18" lengthAdjust="spacingAndGlyphs" textLength="92" x="215" y="29.6992">Manager X</text><!--MD5=[8bd55d22f6414afe954c8b8a22773c89]
@startuml

|Client|
start

:Request Operation X;

|Manager X|
:Validate Request;

if (Valid?) then ([yes])
  :Do operation;
else ([No])
  :Error;
endif

end
@enduml

PlantUML version 1.2020.18(Wed Sep 30 21:40:44 CEST 2020)
(GPL source distribution)
Java Runtime: OpenJDK Runtime Environment
JVM: OpenJDK 64-Bit Server VM
Default Encoding: UTF-8
Language: en
Country: SE
--></g></svg>